{
    "asset": {
        "version": "2.0",
        "generator": "Open Asset Import Library (assimp v5.4.0)"
    },
    "extensionsUsed": [
        "KHR_materials_volume",
        "FB_ngon_encoding"
    ],
    "accessors": [
        {
            "bufferView": 0,
            "byteOffset": 0,
            "componentType": 5126,
            "count": 12,
            "type": "VEC3",
            "max": [
                0.000008868053555488586,
                0.017275981605052948,
                0.012474998831748962
            ],
            "min": [
                -0.018083658069372177,
                0.003840177319943905,
                -0.012474999763071537
            ]
        },
        {
            "bufferView": 1,
            "byteOffset": 0,
            "componentType": 5126,
            "count": 12,
            "type": "VEC3",
            "max": [
                -0.5961994528770447,
                0.8028363585472107,
                -2.3726018201136043e-17
            ],
            "min": [
                -0.5961994528770447,
                0.8028363585472107,
                -2.3726018201136043e-17
            ]
        },
        {
            "bufferView": 2,
            "byteOffset": 0,
            "componentType": 5126,
            "count": 12,
            "type": "VEC2",
            "max": [
                1.0,
                1.0
            ],
            "min": [
                0.0,
                0.0
            ]
        },
        {
            "bufferView": 3,
            "byteOffset": 0,
            "componentType": 5125,
            "count": 18,
            "type": "SCALAR",
            "max": [
                11
            ],
            "min": [
                0
            ]
        },
        {
            "bufferView": 4,
            "byteOffset": 0,
            "componentType": 5126,
            "count": 8,
            "type": "VEC3",
            "max": [
                0.01808350533246994,
                0.017238615080714226,
                0.012478074058890343
            ],
            "min": [
                0.000008868053555488586,
                0.0038160905241966248,
                -0.0024760267697274685
            ]
        },
        {
            "bufferView": 5,
            "byteOffset": 0,
            "componentType": 5126,
            "count": 8,
            "type": "VEC3",
            "max": [
                0.5961994528770447,
                0.8028363585472107,
                1.2303823244292635e-16
            ],
            "min": [
                0.5961994528770447,
                0.8028363585472107,
                1.2303823244292635e-16
            ]
        },
        {
            "bufferView": 6,
            "byteOffset": 0,
            "componentType": 5126,
            "count": 8,
            "type": "VEC2",
            "max": [
                1.0,
                1.0
            ],
            "min": [
                0.0,
                0.0
            ]
        },
        {
            "bufferView": 7,
            "byteOffset": 0,
            "componentType": 5125,
            "count": 12,
            "type": "SCALAR",
            "max": [
                7
            ],
            "min": [
                0
            ]
        },
        {
            "bufferView": 8,
            "byteOffset": 0,
            "componentType": 5126,
            "count": 4,
            "type": "VEC3",
            "max": [
                0.01808350533246994,
                0.017238616943359375,
                -0.007526724599301815
            ],
            "min": [
                0.000008868053555488586,
                0.0038160914555191994,
                -0.012480129487812519
            ]
        },
        {
            "bufferView": 9,
            "byteOffset": 0,
            "componentType": 5126,
            "count": 4,
            "type": "VEC3",
            "max": [
                0.5961994528770447,
                0.8028363585472107,
                1.2303823244292635e-16
            ],
            "min": [
                0.5961994528770447,
                0.8028363585472107,
                1.2303823244292635e-16
            ]
        },
        {
            "bufferView": 10,
            "byteOffset": 0,
            "componentType": 5126,
            "count": 4,
            "type": "VEC2",
            "max": [
                1.0,
                1.0
            ],
            "min": [
                0.0,
                0.0
            ]
        },
        {
            "bufferView": 11,
            "byteOffset": 0,
            "componentType": 5125,
            "count": 6,
            "type": "SCALAR",
            "max": [
                3
            ],
            "min": [
                0
            ]
        },
        {
            "bufferView": 12,
            "byteOffset": 0,
            "componentType": 5126,
            "count": 8,
            "type": "VEC3",
            "max": [
                0.009279715828597546,
                -0.00021825730800628662,
                0.01551000028848648
            ],
            "min": [
                -0.009261979721486568,
                -0.00021825730800628662,
                0.01549999974668026
            ]
        },
        {
            "bufferView": 13,
            "byteOffset": 0,
            "componentType": 5126,
            "count": 8,
            "type": "VEC3",
            "max": [
                -3.7493993930529855e-33,
                1.0,
                6.123234262925839e-17
            ],
            "min": [
                -3.7493993930529855e-33,
                1.0,
                6.123234262925839e-17
            ]
        },
        {
            "bufferView": 14,
            "byteOffset": 0,
            "componentType": 5126,
            "count": 8,
            "type": "VEC2",
            "max": [
                1.0,
                1.0
            ],
            "min": [
                0.0,
                0.0
            ]
        },
        {
            "bufferView": 15,
            "byteOffset": 0,
            "componentType": 5125,
            "count": 12,
            "type": "SCALAR",
            "max": [
                7
            ],
            "min": [
                0
            ]
        },
        {
            "bufferView": 16,
            "byteOffset": 0,
            "componentType": 5126,
            "count": 4,
            "type": "VEC3",
            "max": [
                0.018101390451192856,
                0.017275981605052948,
                -0.01250000111758709
            ],
            "min": [
                0.000008867122232913971,
                0.003840177785605192,
                -0.017500001937150955
            ]
        },
        {
            "bufferView": 17,
            "byteOffset": 0,
            "componentType": 5126,
            "count": 4,
            "type": "VEC3",
            "max": [
                0.5961994528770447,
                0.8028363585472107,
                1.2217292211285708e-16
            ],
            "min": [
                0.5961994528770447,
                0.8028363585472107,
                1.2217292211285708e-16
            ]
        },
        {
            "bufferView": 18,
            "byteOffset": 0,
            "componentType": 5126,
            "count": 4,
            "type": "VEC2",
            "max": [
                1.0,
                1.0
            ],
            "min": [
                0.0,
                0.0
            ]
        },
        {
            "bufferView": 19,
            "byteOffset": 0,
            "componentType": 5125,
            "count": 6,
            "type": "SCALAR",
            "max": [
                3
            ],
            "min": [
                0
            ]
        },
        {
            "bufferView": 20,
            "byteOffset": 0,
            "componentType": 5126,
            "count": 1400,
            "type": "VEC3",
            "max": [
                0.018101390451192856,
                0.017275981605052948,
                0.017500000074505806
            ],
            "min": [
                -0.018083656206727028,
                -0.017297282814979553,
                -0.017500000074505806
            ]
        },
        {
            "bufferView": 21,
            "byteOffset": 0,
            "componentType": 5126,
            "count": 1400,
            "type": "VEC3",
            "max": [
                1.0,
                1.0,
                1.0
            ],
            "min": [
                -1.0,
                -1.0,
                -1.0
            ]
        },
        {
            "bufferView": 22,
            "byteOffset": 0,
            "componentType": 5126,
            "count": 1400,
            "type": "VEC2",
            "max": [
                1.0,
                1.0
            ],
            "min": [
                0.0,
                0.0
            ]
        },
        {
            "bufferView": 23,
            "byteOffset": 0,
            "componentType": 5125,
            "count": 3012,
            "type": "SCALAR",
            "max": [
                1399
            ],
            "min": [
                0
            ]
        }
    ],
    "buffers": [
        {
            "byteLength": 58216,
            "uri": "Doghouse_0.bin"
        }
    ],
    "bufferViews": [
        {
            "buffer": 0,
            "byteOffset": 0,
            "byteLength": 144,
            "target": 34962
        },
        {
            "buffer": 0,
            "byteOffset": 144,
            "byteLength": 144,
            "target": 34962
        },
        {
            "buffer": 0,
            "byteOffset": 288,
            "byteLength": 96,
            "target": 34962
        },
        {
            "buffer": 0,
            "byteOffset": 384,
            "byteLength": 72,
            "target": 34963
        },
        {
            "buffer": 0,
            "byteOffset": 456,
            "byteLength": 96,
            "target": 34962
        },
        {
            "buffer": 0,
            "byteOffset": 552,
            "byteLength": 96,
            "target": 34962
        },
        {
            "buffer": 0,
            "byteOffset": 648,
            "byteLength": 64,
            "target": 34962
        },
        {
            "buffer": 0,
            "byteOffset": 712,
            "byteLength": 48,
            "target": 34963
        },
        {
            "buffer": 0,
            "byteOffset": 760,
            "byteLength": 48,
            "target": 34962
        },
        {
            "buffer": 0,
            "byteOffset": 808,
            "byteLength": 48,
            "target": 34962
        },
        {
            "buffer": 0,
            "byteOffset": 856,
            "byteLength": 32,
            "target": 34962
        },
        {
            "buffer": 0,
            "byteOffset": 888,
            "byteLength": 24,
            "target": 34963
        },
        {
            "buffer": 0,
            "byteOffset": 912,
            "byteLength": 96,
            "target": 34962
        },
        {
            "buffer": 0,
            "byteOffset": 1008,
            "byteLength": 96,
            "target": 34962
        },
        {
            "buffer": 0,
            "byteOffset": 1104,
            "byteLength": 64,
            "target": 34962
        },
        {
            "buffer": 0,
            "byteOffset": 1168,
            "byteLength": 48,
            "target": 34963
        },
        {
            "buffer": 0,
            "byteOffset": 1216,
            "byteLength": 48,
            "target": 34962
        },
        {
            "buffer": 0,
            "byteOffset": 1264,
            "byteLength": 48,
            "target": 34962
        },
        {
            "buffer": 0,
            "byteOffset": 1312,
            "byteLength": 32,
            "target": 34962
        },
        {
            "buffer": 0,
            "byteOffset": 1344,
            "byteLength": 24,
            "target": 34963
        },
        {
            "buffer": 0,
            "byteOffset": 1368,
            "byteLength": 16800,
            "target": 34962
        },
        {
            "buffer": 0,
            "byteOffset": 18168,
            "byteLength": 16800,
            "target": 34962
        },
        {
            "buffer": 0,
            "byteOffset": 34968,
            "byteLength": 11200,
            "target": 34962
        },
        {
            "buffer": 0,
            "byteOffset": 46168,
            "byteLength": 12048,
            "target": 34963
        }
    ],
    "images": [
        {
            "uri": "textures/image_1.png"
        },
        {
            "uri": "textures/image_0.png"
        },
        {
            "uri": "textures/image_2.png"
        },
        {
            "uri": "textures/image_4.png"
        },
        {
            "uri": "textures/image_3.png"
        },
        {
            "uri": "textures/image_5.png"
        },
        {
            "uri": "textures/image_7.png"
        },
        {
            "uri": "textures/image_6.png"
        },
        {
            "uri": "textures/image_8.png"
        },
        {
            "uri": "textures/image_9.png"
        },
        {
            "uri": "textures/image_10.png"
        },
        {
            "uri": "textures/image_12.png"
        },
        {
            "uri": "textures/image_11.png"
        },
        {
            "uri": "textures/image_13.png"
        },
        {
            "uri": "textures/image_15.png"
        },
        {
            "uri": "textures/image_14.png"
        },
        {
            "uri": "textures/image_16.png"
        }
    ],
    "materials": [
        {
            "name": "Mat_1",
            "pbrMetallicRoughness": {
                "baseColorTexture": {
                    "index": 0
                },
                "metallicRoughnessTexture": {
                    "index": 1
                }
            },
            "normalTexture": {
                "index": 2
            }
        },
        {
            "name": "Mat_2",
            "pbrMetallicRoughness": {
                "baseColorTexture": {
                    "index": 3
                },
                "metallicRoughnessTexture": {
                    "index": 4
                }
            },
            "normalTexture": {
                "index": 5
            }
        },
        {
            "name": "Mat_3",
            "pbrMetallicRoughness": {
                "baseColorTexture": {
                    "index": 6
                },
                "metallicRoughnessTexture": {
                    "index": 7
                }
            },
            "normalTexture": {
                "index": 8
            }
        },
        {
            "name": "Mat_4",
            "pbrMetallicRoughness": {
                "metallicRoughnessTexture": {
                    "index": 9
                },
                "baseColorFactor": [
                    0.0423114113509655,
                    0.0423114113509655,
                    0.0423114113509655,
                    1.0
                ]
            },
            "normalTexture": {
                "index": 10
            }
        },
        {
            "name": "Mat_5",
            "pbrMetallicRoughness": {
                "baseColorTexture": {
                    "index": 11
                },
                "metallicRoughnessTexture": {
                    "index": 12
                }
            },
            "normalTexture": {
                "index": 13
            }
        },
        {
            "name": "Mat_6",
            "pbrMetallicRoughness": {
                "baseColorTexture": {
                    "index": 14
                },
                "metallicRoughnessTexture": {
                    "index": 15
                }
            },
            "normalTexture": {
                "index": 16
            }
        }
    ],
    "meshes": [
        {
            "name": "meshes[0]",
            "primitives": [
                {
                    "mode": 4,
                    "material": 0,
                    "indices": 3,
                    "attributes": {
                        "POSITION": 0,
                        "NORMAL": 1,
                        "TEXCOORD_0": 2
                    }
                }
            ]
        },
        {
            "name": "meshes[1]",
            "primitives": [
                {
                    "mode": 4,
                    "material": 1,
                    "indices": 7,
                    "attributes": {
                        "POSITION": 4,
                        "NORMAL": 5,
                        "TEXCOORD_0": 6
                    }
                }
            ]
        },
        {
            "name": "meshes[2]",
            "primitives": [
                {
                    "mode": 4,
                    "material": 2,
                    "indices": 11,
                    "attributes": {
                        "POSITION": 8,
                        "NORMAL": 9,
                        "TEXCOORD_0": 10
                    }
                }
            ]
        },
        {
            "name": "meshes[3]",
            "primitives": [
                {
                    "mode": 4,
                    "material": 3,
                    "indices": 15,
                    "attributes": {
                        "POSITION": 12,
                        "NORMAL": 13,
                        "TEXCOORD_0": 14
                    }
                }
            ]
        },
        {
            "name": "meshes[4]",
            "primitives": [
                {
                    "mode": 4,
                    "material": 4,
                    "indices": 19,
                    "attributes": {
                        "POSITION": 16,
                        "NORMAL": 17,
                        "TEXCOORD_0": 18
                    }
                }
            ]
        },
        {
            "name": "meshes[5]",
            "primitives": [
                {
                    "mode": 4,
                    "material": 5,
                    "indices": 23,
                    "attributes": {
                        "POSITION": 20,
                        "NORMAL": 21,
                        "TEXCOORD_0": 22
                    }
                }
            ]
        }
    ],
    "nodes": [
        {
            "name": "Doghouse",
            "children": [
                1,
                2,
                3,
                4,
                5,
                6
            ]
        },
        {
            "name": "mesh_1",
            "mesh": 0
        },
        {
            "name": "mesh_2",
            "mesh": 1
        },
        {
            "name": "mesh_3",
            "mesh": 2
        },
        {
            "name": "mesh_5",
            "mesh": 3
        },
        {
            "name": "mesh_4",
            "mesh": 4
        },
        {
            "name": "mesh_0",
            "mesh": 5
        }
    ],
    "samplers": [
        {
            "magFilter": 9729,
            "minFilter": 9987
        },
        {
            "magFilter": 9729,
            "minFilter": 9987
        },
        {
            "magFilter": 9729,
            "minFilter": 9987
        },
        {
            "magFilter": 9729,
            "minFilter": 9987
        },
        {
            "magFilter": 9729,
            "minFilter": 9987
        },
        {
            "magFilter": 9729,
            "minFilter": 9987
        },
        {
            "magFilter": 9729,
            "minFilter": 9987
        },
        {
            "magFilter": 9729,
            "minFilter": 9987
        },
        {
            "magFilter": 9729,
            "minFilter": 9987
        },
        {
            "magFilter": 9729,
            "minFilter": 9987
        },
        {
            "magFilter": 9729,
            "minFilter": 9987
        },
        {
            "magFilter": 9729,
            "minFilter": 9987
        },
        {
            "magFilter": 9729,
            "minFilter": 9987
        },
        {
            "magFilter": 9729,
            "minFilter": 9987
        },
        {
            "magFilter": 9729,
            "minFilter": 9987
        },
        {
            "magFilter": 9729,
            "minFilter": 9987
        },
        {
            "magFilter": 9729,
            "minFilter": 9987
        }
    ],
    "scenes": [
        {
            "nodes": [
                0
            ]
        }
    ],
    "textures": [
        {
            "source": 0,
            "sampler": 0
        },
        {
            "source": 1,
            "sampler": 1
        },
        {
            "source": 2,
            "sampler": 2
        },
        {
            "source": 3,
            "sampler": 3
        },
        {
            "source": 4,
            "sampler": 4
        },
        {
            "source": 5,
            "sampler": 5
        },
        {
            "source": 6,
            "sampler": 6
        },
        {
            "source": 7,
            "sampler": 7
        },
        {
            "source": 8,
            "sampler": 8
        },
        {
            "source": 9,
            "sampler": 9
        },
        {
            "source": 10,
            "sampler": 10
        },
        {
            "source": 11,
            "sampler": 11
        },
        {
            "source": 12,
            "sampler": 12
        },
        {
            "source": 13,
            "sampler": 13
        },
        {
            "source": 14,
            "sampler": 14
        },
        {
            "source": 15,
            "sampler": 15
        },
        {
            "source": 16,
            "sampler": 16
        }
    ],
    "scene": 0
}